<mxfile host="Electron" modified="2024-05-03T14:19:05.371Z" agent="Mozilla/5.0 (Windows NT 10.0; Win64; x64) AppleWebKit/537.36 (KHTML, like Gecko) draw.io/24.0.4 Chrome/120.0.6099.109 Electron/28.1.0 Safari/537.36" etag="SBvCSgO8y8yQ7R37ssSD" version="24.0.4" type="device">
  <diagram name="Página-1" id="y2MyDRsZHRYeEAr3EYyj">
    <mxGraphModel dx="834" dy="1677" grid="1" gridSize="10" guides="1" tooltips="1" connect="1" arrows="1" fold="1" page="1" pageScale="1" pageWidth="827" pageHeight="1169" math="0" shadow="0">
      <root>
        <mxCell id="0" />
        <mxCell id="1" parent="0" />
        <mxCell id="-XCpeLoYGi3eG-vCvjcC-1" value="1.- Modulos a migrar" style="shape=ext;double=1;rounded=1;whiteSpace=wrap;html=1;" parent="1" vertex="1">
          <mxGeometry x="40" y="-910" width="100" height="50" as="geometry" />
        </mxCell>
        <mxCell id="-XCpeLoYGi3eG-vCvjcC-2" value="" style="endArrow=classic;html=1;rounded=0;exitX=1;exitY=0.5;exitDx=0;exitDy=0;" parent="1" source="-XCpeLoYGi3eG-vCvjcC-1" edge="1">
          <mxGeometry width="50" height="50" relative="1" as="geometry">
            <mxPoint x="360" y="-710" as="sourcePoint" />
            <mxPoint x="210" y="-885" as="targetPoint" />
          </mxGeometry>
        </mxCell>
        <mxCell id="-XCpeLoYGi3eG-vCvjcC-3" value="2.-&amp;nbsp; Analisis de módulo" style="shape=ext;double=1;rounded=1;whiteSpace=wrap;html=1;" parent="1" vertex="1">
          <mxGeometry x="190" y="-910" width="100" height="50" as="geometry" />
        </mxCell>
        <mxCell id="-XCpeLoYGi3eG-vCvjcC-8" value="" style="endArrow=classic;html=1;rounded=0;exitX=0.5;exitY=1;exitDx=0;exitDy=0;entryX=0.5;entryY=0;entryDx=0;entryDy=0;" parent="1" source="-XCpeLoYGi3eG-vCvjcC-3" target="-XCpeLoYGi3eG-vCvjcC-9" edge="1">
          <mxGeometry width="50" height="50" relative="1" as="geometry">
            <mxPoint x="320" y="-885" as="sourcePoint" />
            <mxPoint x="260" y="-810" as="targetPoint" />
          </mxGeometry>
        </mxCell>
        <mxCell id="-XCpeLoYGi3eG-vCvjcC-9" value="Obtener querys que se utilizan en el modulo" style="shape=ext;double=1;rounded=1;whiteSpace=wrap;html=1;" parent="1" vertex="1">
          <mxGeometry x="190" y="-800" width="100" height="70" as="geometry" />
        </mxCell>
        <mxCell id="-XCpeLoYGi3eG-vCvjcC-10" value="Obtener las funciones que estan en las consultas" style="shape=ext;double=1;rounded=1;whiteSpace=wrap;html=1;" parent="1" vertex="1">
          <mxGeometry x="50" y="-740" width="110" height="60" as="geometry" />
        </mxCell>
        <mxCell id="Bvt2-2GDxwBjdXyRdOmz-2" value="" style="edgeStyle=orthogonalEdgeStyle;rounded=0;orthogonalLoop=1;jettySize=auto;html=1;" edge="1" parent="1" source="-XCpeLoYGi3eG-vCvjcC-14" target="-XCpeLoYGi3eG-vCvjcC-9">
          <mxGeometry relative="1" as="geometry" />
        </mxCell>
        <mxCell id="-XCpeLoYGi3eG-vCvjcC-14" value="Crear los Sp" style="shape=ext;double=1;rounded=1;whiteSpace=wrap;html=1;" parent="1" vertex="1">
          <mxGeometry x="185" y="-654" width="110" height="70" as="geometry" />
        </mxCell>
        <mxCell id="-XCpeLoYGi3eG-vCvjcC-17" value="" style="endArrow=none;dashed=1;html=1;dashPattern=1 3;strokeWidth=2;rounded=0;exitX=0;exitY=0.5;exitDx=0;exitDy=0;entryX=0.5;entryY=0;entryDx=0;entryDy=0;" parent="1" source="-XCpeLoYGi3eG-vCvjcC-9" target="-XCpeLoYGi3eG-vCvjcC-10" edge="1">
          <mxGeometry width="50" height="50" relative="1" as="geometry">
            <mxPoint x="360" y="-710" as="sourcePoint" />
            <mxPoint x="410" y="-760" as="targetPoint" />
            <Array as="points">
              <mxPoint x="105" y="-765" />
            </Array>
          </mxGeometry>
        </mxCell>
        <mxCell id="-XCpeLoYGi3eG-vCvjcC-18" value="3.- Desarrollo Frontend" style="shape=ext;double=1;rounded=1;whiteSpace=wrap;html=1;" parent="1" vertex="1">
          <mxGeometry x="380" y="-910" width="100" height="50" as="geometry" />
        </mxCell>
        <mxCell id="-XCpeLoYGi3eG-vCvjcC-21" value="" style="endArrow=classic;html=1;rounded=0;exitX=1;exitY=0.5;exitDx=0;exitDy=0;entryX=0;entryY=0.5;entryDx=0;entryDy=0;" parent="1" source="-XCpeLoYGi3eG-vCvjcC-3" target="-XCpeLoYGi3eG-vCvjcC-18" edge="1">
          <mxGeometry width="50" height="50" relative="1" as="geometry">
            <mxPoint x="320" y="-885.5" as="sourcePoint" />
            <mxPoint x="390" y="-885" as="targetPoint" />
          </mxGeometry>
        </mxCell>
        <mxCell id="-XCpeLoYGi3eG-vCvjcC-22" value="Consumir los sp, construción del back" style="shape=ext;double=1;rounded=1;whiteSpace=wrap;html=1;" parent="1" vertex="1">
          <mxGeometry x="387" y="-730" width="86" height="70" as="geometry" />
        </mxCell>
        <mxCell id="-XCpeLoYGi3eG-vCvjcC-23" value="Implementación de los modulos" style="shape=ext;double=1;rounded=1;whiteSpace=wrap;html=1;" parent="1" vertex="1">
          <mxGeometry x="500" y="-619" width="100" height="70" as="geometry" />
        </mxCell>
        <mxCell id="-XCpeLoYGi3eG-vCvjcC-24" value="Pruebas y ajustes" style="shape=ext;double=1;rounded=1;whiteSpace=wrap;html=1;" parent="1" vertex="1">
          <mxGeometry x="660" y="-609" width="86" height="50" as="geometry" />
        </mxCell>
        <mxCell id="-XCpeLoYGi3eG-vCvjcC-25" value="" style="endArrow=classic;html=1;rounded=0;exitX=0.5;exitY=1;exitDx=0;exitDy=0;entryX=0.5;entryY=0;entryDx=0;entryDy=0;" parent="1" source="-XCpeLoYGi3eG-vCvjcC-18" target="-XCpeLoYGi3eG-vCvjcC-22" edge="1">
          <mxGeometry width="50" height="50" relative="1" as="geometry">
            <mxPoint x="540" y="-710" as="sourcePoint" />
            <mxPoint x="590" y="-760" as="targetPoint" />
          </mxGeometry>
        </mxCell>
        <mxCell id="-XCpeLoYGi3eG-vCvjcC-28" value="" style="endArrow=none;dashed=1;html=1;rounded=0;entryX=0;entryY=0.5;entryDx=0;entryDy=0;exitX=0.5;exitY=1;exitDx=0;exitDy=0;" parent="1" source="-XCpeLoYGi3eG-vCvjcC-22" target="-XCpeLoYGi3eG-vCvjcC-23" edge="1">
          <mxGeometry width="50" height="50" relative="1" as="geometry">
            <mxPoint x="446" y="-690" as="sourcePoint" />
            <mxPoint x="496" y="-740" as="targetPoint" />
            <Array as="points">
              <mxPoint x="430" y="-584" />
            </Array>
          </mxGeometry>
        </mxCell>
        <mxCell id="-XCpeLoYGi3eG-vCvjcC-29" value="" style="endArrow=classic;startArrow=classic;html=1;rounded=0;exitX=1;exitY=0.5;exitDx=0;exitDy=0;entryX=0;entryY=0.5;entryDx=0;entryDy=0;" parent="1" source="-XCpeLoYGi3eG-vCvjcC-23" target="-XCpeLoYGi3eG-vCvjcC-24" edge="1">
          <mxGeometry width="50" height="50" relative="1" as="geometry">
            <mxPoint x="540" y="-710" as="sourcePoint" />
            <mxPoint x="590" y="-760" as="targetPoint" />
          </mxGeometry>
        </mxCell>
        <mxCell id="-XCpeLoYGi3eG-vCvjcC-30" value="4.- Solicitar modulos al servidor" style="shape=ext;double=1;rounded=1;whiteSpace=wrap;html=1;" parent="1" vertex="1">
          <mxGeometry x="566" y="-910" width="100" height="50" as="geometry" />
        </mxCell>
        <mxCell id="-XCpeLoYGi3eG-vCvjcC-31" value="" style="endArrow=classic;html=1;rounded=0;exitX=1;exitY=0.5;exitDx=0;exitDy=0;entryX=0;entryY=0.5;entryDx=0;entryDy=0;" parent="1" source="-XCpeLoYGi3eG-vCvjcC-18" target="-XCpeLoYGi3eG-vCvjcC-30" edge="1">
          <mxGeometry width="50" height="50" relative="1" as="geometry">
            <mxPoint x="670" y="-710" as="sourcePoint" />
            <mxPoint x="720" y="-760" as="targetPoint" />
          </mxGeometry>
        </mxCell>
        <mxCell id="-XCpeLoYGi3eG-vCvjcC-32" value="Pruebas de funcionalidad en el servidor" style="shape=ext;double=1;rounded=1;whiteSpace=wrap;html=1;" parent="1" vertex="1">
          <mxGeometry x="510" y="-820" width="160" height="50" as="geometry" />
        </mxCell>
        <mxCell id="-XCpeLoYGi3eG-vCvjcC-33" value="5.- Notificar al area operativa" style="shape=ext;double=1;rounded=1;whiteSpace=wrap;html=1;" parent="1" vertex="1">
          <mxGeometry x="700" y="-910" width="100" height="50" as="geometry" />
        </mxCell>
        <mxCell id="-XCpeLoYGi3eG-vCvjcC-34" value="" style="endArrow=none;dashed=1;html=1;dashPattern=1 3;strokeWidth=2;rounded=0;entryX=0.25;entryY=1;entryDx=0;entryDy=0;exitX=0.5;exitY=0;exitDx=0;exitDy=0;" parent="1" source="-XCpeLoYGi3eG-vCvjcC-32" target="-XCpeLoYGi3eG-vCvjcC-30" edge="1">
          <mxGeometry width="50" height="50" relative="1" as="geometry">
            <mxPoint x="670" y="-710" as="sourcePoint" />
            <mxPoint x="720" y="-760" as="targetPoint" />
          </mxGeometry>
        </mxCell>
        <mxCell id="-XCpeLoYGi3eG-vCvjcC-35" value="" style="endArrow=classic;html=1;rounded=0;exitX=1;exitY=0.5;exitDx=0;exitDy=0;entryX=0;entryY=0.5;entryDx=0;entryDy=0;" parent="1" source="-XCpeLoYGi3eG-vCvjcC-30" target="-XCpeLoYGi3eG-vCvjcC-33" edge="1">
          <mxGeometry width="50" height="50" relative="1" as="geometry">
            <mxPoint x="670" y="-710" as="sourcePoint" />
            <mxPoint x="720" y="-760" as="targetPoint" />
          </mxGeometry>
        </mxCell>
        <mxCell id="-XCpeLoYGi3eG-vCvjcC-36" value="Crear Matriz de prueba por módulo" style="shape=ext;double=1;rounded=1;whiteSpace=wrap;html=1;" parent="1" vertex="1">
          <mxGeometry x="692" y="-830" width="116" height="50" as="geometry" />
        </mxCell>
        <mxCell id="-XCpeLoYGi3eG-vCvjcC-37" value="" style="endArrow=none;dashed=1;html=1;rounded=0;entryX=0.5;entryY=1;entryDx=0;entryDy=0;exitX=0.5;exitY=0;exitDx=0;exitDy=0;" parent="1" source="-XCpeLoYGi3eG-vCvjcC-36" target="-XCpeLoYGi3eG-vCvjcC-33" edge="1">
          <mxGeometry width="50" height="50" relative="1" as="geometry">
            <mxPoint x="430" y="-670" as="sourcePoint" />
            <mxPoint x="480" y="-720" as="targetPoint" />
          </mxGeometry>
        </mxCell>
        <mxCell id="-XCpeLoYGi3eG-vCvjcC-39" value="&lt;b&gt;&lt;font style=&quot;font-size: 14px;&quot;&gt;Migración Portal Web&lt;/font&gt;&lt;/b&gt;" style="text;html=1;align=center;verticalAlign=middle;whiteSpace=wrap;rounded=0;" parent="1" vertex="1">
          <mxGeometry x="190" y="-990" width="370" height="30" as="geometry" />
        </mxCell>
        <mxCell id="Bvt2-2GDxwBjdXyRdOmz-1" value="" style="endArrow=classic;html=1;rounded=0;exitX=0.5;exitY=1;exitDx=0;exitDy=0;entryX=0.5;entryY=0.057;entryDx=0;entryDy=0;entryPerimeter=0;" edge="1" parent="1" source="-XCpeLoYGi3eG-vCvjcC-9" target="-XCpeLoYGi3eG-vCvjcC-14">
          <mxGeometry width="50" height="50" relative="1" as="geometry">
            <mxPoint x="239.5" y="-720" as="sourcePoint" />
            <mxPoint x="240" y="-660" as="targetPoint" />
          </mxGeometry>
        </mxCell>
        <mxCell id="Bvt2-2GDxwBjdXyRdOmz-3" value="Alimentar Sprint por módulo" style="shape=ext;double=1;rounded=1;whiteSpace=wrap;html=1;" vertex="1" parent="1">
          <mxGeometry x="290" y="-860" width="110" height="60" as="geometry" />
        </mxCell>
        <mxCell id="Bvt2-2GDxwBjdXyRdOmz-4" value="" style="endArrow=none;dashed=1;html=1;dashPattern=1 3;strokeWidth=2;rounded=0;entryX=0;entryY=0.5;entryDx=0;entryDy=0;" edge="1" parent="1" target="Bvt2-2GDxwBjdXyRdOmz-3">
          <mxGeometry width="50" height="50" relative="1" as="geometry">
            <mxPoint x="240" y="-830" as="sourcePoint" />
            <mxPoint x="280" y="-830" as="targetPoint" />
          </mxGeometry>
        </mxCell>
        <mxCell id="Bvt2-2GDxwBjdXyRdOmz-5" value="" style="endArrow=none;dashed=1;html=1;dashPattern=1 3;strokeWidth=2;rounded=0;entryX=0.31;entryY=-0.06;entryDx=0;entryDy=0;entryPerimeter=0;exitX=0.5;exitY=1;exitDx=0;exitDy=0;" edge="1" parent="1" source="-XCpeLoYGi3eG-vCvjcC-30" target="-XCpeLoYGi3eG-vCvjcC-36">
          <mxGeometry width="50" height="50" relative="1" as="geometry">
            <mxPoint x="620" y="-833" as="sourcePoint" />
            <mxPoint x="440" y="-730" as="targetPoint" />
            <Array as="points" />
          </mxGeometry>
        </mxCell>
      </root>
    </mxGraphModel>
  </diagram>
</mxfile>
